<?xml version="1.0" encoding="UTF-8" standalone="no"?>
<svg
   xmlns:dc="http://purl.org/dc/elements/1.1/"
   xmlns:cc="http://creativecommons.org/ns#"
   xmlns:rdf="http://www.w3.org/1999/02/22-rdf-syntax-ns#"
   xmlns:svg="http://www.w3.org/2000/svg"
   xmlns="http://www.w3.org/2000/svg"
   id="svg3785"
   version="1.1"
   viewBox="0 0 108 30"
   height="30"
   width="108">
  <title
     id="title3793">forbes</title>
  <metadata
     id="metadata3791">
    <rdf:RDF>
      <cc:Work
         rdf:about="">
        <dc:format>image/svg+xml</dc:format>
        <dc:type
           rdf:resource="http://purl.org/dc/dcmitype/StillImage" />
        <dc:title>forbes</dc:title>
      </cc:Work>
    </rdf:RDF>
  </metadata>
  <defs
     id="defs3789" />
  <path
     style="stroke-width:0.95409131"
     id="path3783"
     d="m 65.413456,8.547 c -1.565699,0.019 -3.104089,0.458 -4.483179,1.28 0,-4.464 0.0619,-8.34 0.15566,-9.827 l -8.250871,1.765 v 0.83 l 0.810158,0.104 c 1.151517,0.173 1.587546,0.934 1.743206,2.63 0.24942,3.287 0.21847,20.83 0,23.633 2.306676,0.607 4.666148,0.932 7.036544,0.969 6.537704,0 10.492005,-4.498 10.492005,-11.627 C 72.886029,12.63 69.679077,8.547 65.413456,8.547 Z M 62.549683,28.512 A 9.0510158,9.943 0 0 1 61.147836,28.374 C 61.024037,26.401 60.930277,18.27 60.961227,11.176 a 5.3297493,5.855 0 0 1 1.929815,-0.346 c 2.709934,0 4.23467,3.495 4.23467,7.855 -0.03095,5.606 -1.898865,9.827 -4.576029,9.827 z M 21.825119,8.754 20.548892,9.134 C 19.396464,4.983 17.622309,2.63 14.290646,2.63 H 9.9940765 C 9.807467,5.294 9.7137071,9.723 9.7455673,14.325 L 12.64029,14.221 c 1.930726,-0.069 2.709024,-1.66 3.176913,-3.979 H 16.90591 V 20 H 15.816293 C 15.349314,17.647 14.540066,16.055 12.60934,15.986 L 9.7455673,15.882 c 0.03095,3.495 0.1237995,6.47 0.2485092,8.236 0.1866095,2.595 0.8411085,3.737 2.4905545,4.013 l 1.463746,0.173 v 1.177 H 0 v -1.177 l 1.1524274,-0.173 c 1.649446,-0.276 2.3030343,-1.418 2.4905541,-4.013 0.3113193,-4.291 0.373219,-13.184 0,-18.166 C 3.456372,3.391 2.8018734,2.249 1.1524274,1.972 L 0,1.8 V 0.657 h 21.701319 z m 6.942783,-0.45 c 6.165396,0 9.216689,4.637 9.216689,10.796 0,6.16 -3.456372,10.865 -9.621768,10.865 -6.163575,0 -9.245818,-4.636 -9.245818,-10.76 0,-6.125 3.455462,-10.9 9.650897,-10.9 z m -0.311319,1.315 c -2.739974,0 -3.486411,4.083 -3.486411,9.516 0,5.432 1.214327,9.516 3.735831,9.516 2.521504,0 3.486411,-4.084 3.486411,-9.516 0,-5.433 -1.244367,-9.481 -3.766781,-9.481 z m 45.955092,9.724 c 0,-5.675 3.206953,-11.004 9.588998,-11.004 5.168628,0 7.628232,4.256 7.659182,9.827 H 80.109182 c -0.12471,5.052 2.179235,8.789 6.600515,8.789 1.929815,0 2.989393,-0.519 4.17186,-1.522 l 0.529789,0.726 C 90.134208,28.131 87.457045,30 83.907823,30 78.334116,29.965 74.411675,25.606 74.411675,19.343 Z m 5.759407,-2.596 5.791266,-0.138 c 0.03095,-2.837 -0.373219,-6.92 -2.459604,-6.92 -2.085475,0 -3.299802,3.84 -3.362612,7.024 z m 26.309208,-2.041 -0.93396,0.277 c -0.99677,-3.634 -2.5215,-5.156 -4.76355,-5.156 -1.494693,0 -2.55336,1.246 -2.55336,3.045 0,1.8 1.214327,2.734 4.70165,4.221 3.48641,1.488 4.48318,2.976 4.48318,5.883 0,4.325 -2.98848,6.99 -7.908604,6.99 a 19.197111,21.089 0 0 1 -6.506754,-1.28 l -0.15566,-5.987 0.933958,-0.277 c 1.338127,4.187 3.113193,5.71 5.448997,5.71 2.334893,0 3.082243,-1.558 3.082243,-3.219 0,-1.66 -0.84111,-2.595 -3.985251,-3.84 -3.145052,-1.246 -5.043918,-2.595 -5.043918,-6.229 0,-3.633 2.801874,-6.54 7.440709,-6.54 2.14829,0 4.20372,0.416 5.57371,1.108 z M 52.056768,14.533 C 49.566214,12.664 46.85719,13.495 46.328311,14.498 a 84.282863,92.589 0 0 0 0.0619,11.073 c 0.12471,1.695 0.591689,2.457 1.744116,2.63 l 1.493786,0.103 v 1.177 H 38.141161 v -1.177 l 0.809248,-0.103 c 1.151517,-0.173 1.587546,-0.935 1.743206,-2.63 a 81.66942,89.718 0 0 0 0,-11.938 c -0.12471,-1.695 -0.591689,-2.457 -1.743206,-2.63 L 38.140251,10.9 v -0.83 l 8.25087,-1.766 -0.09285,4.776 c 1.929815,-4.914 5.728456,-5.571 7.782981,-4.187 l -2.023575,5.64 z" />
</svg>
