<?xml version="1.0" encoding="UTF-8" standalone="no"?>
<svg xmlns="http://www.w3.org/2000/svg" width="118" height="30" viewBox="0 0 118 30">
                      <path d="M71.86 8.547c-1.72.019-3.41.458-4.925 1.28 0-4.464.068-8.34.171-9.827l-9.064 1.765v.83l.89.104c1.265.173 1.744.934 1.915 2.63.274 3.287.24 20.83 0 23.633 2.534.607 5.126.932 7.73.969 7.182 0 11.526-4.498 11.526-11.627-.034-5.674-3.557-9.757-8.243-9.757zm-3.146 19.965a9.943 9.943 0 0 1-1.54-.138c-.136-1.973-.239-10.104-.205-17.198a5.855 5.855 0 0 1 2.12-.346c2.977 0 4.652 3.495 4.652 7.855-.034 5.606-2.086 9.827-5.027 9.827zM23.976 8.754l-1.402.38c-1.266-4.151-3.215-6.504-6.875-6.504h-4.72c-.205 2.664-.308 7.093-.273 11.695l3.18-.104c2.121-.069 2.976-1.66 3.49-3.979h1.196V20h-1.197c-.513-2.353-1.402-3.945-3.523-4.014l-3.146-.104c.034 3.495.136 6.47.273 8.236.205 2.595.924 3.737 2.736 4.013l1.608.173v1.177H0v-1.177l1.266-.173c1.812-.276 2.53-1.418 2.736-4.013.342-4.291.41-13.184 0-18.166-.205-2.561-.924-3.703-2.736-3.98L0 1.8V.657h23.84l.136 8.097zm7.627-.45c6.773 0 10.125 4.637 10.125 10.796 0 6.16-3.797 10.865-10.57 10.865-6.771 0-10.157-4.636-10.157-10.76 0-6.125 3.796-10.9 10.602-10.9zm-.342 1.315c-3.01 0-3.83 4.083-3.83 9.516 0 5.432 1.334 9.516 4.104 9.516s3.83-4.084 3.83-9.516c0-5.433-1.367-9.481-4.138-9.481l.034-.035zm50.484 9.724c0-5.675 3.523-11.004 10.534-11.004 5.678 0 8.38 4.256 8.414 9.827H88.004c-.137 5.052 2.394 8.789 7.251 8.789 2.12 0 3.284-.519 4.583-1.522l.582.726C99.017 28.131 96.076 30 92.177 30c-6.123-.035-10.432-4.394-10.432-10.657zm6.327-2.596l6.362-.138c.034-2.837-.41-6.92-2.702-6.92-2.291 0-3.625 3.84-3.694 7.024l.034.034zm28.902-2.041l-1.026.277c-1.095-3.634-2.77-5.156-5.233-5.156-1.642 0-2.805 1.246-2.805 3.045 0 1.8 1.334 2.734 5.165 4.221 3.83 1.488 4.925 2.976 4.925 5.883 0 4.325-3.283 6.99-8.688 6.99a21.089 21.089 0 0 1-7.148-1.28l-.171-5.987 1.026-.277c1.47 4.187 3.42 5.71 5.986 5.71 2.565 0 3.386-1.558 3.386-3.219 0-1.66-.924-2.595-4.378-3.84-3.455-1.246-5.541-2.595-5.541-6.229 0-3.633 3.078-6.54 8.174-6.54 2.36 0 4.618.416 6.123 1.108l.205 5.294zm-59.787-.173c-2.736-1.869-5.712-1.038-6.293-.035a92.589 92.589 0 0 0 .068 11.073c.137 1.695.65 2.457 1.916 2.63l1.641.103v1.177H41.9v-1.177l.889-.103c1.265-.173 1.744-.935 1.915-2.63a89.718 89.718 0 0 0 0-11.938c-.137-1.695-.65-2.457-1.915-2.63l-.89-.103v-.83l9.064-1.766-.102 4.776c2.12-4.914 6.293-5.571 8.55-4.187l-2.223 5.64z"></path>
                    </svg>