<?xml version="1.0" encoding="UTF-8" standalone="no"?>
<svg
   xmlns:dc="http://purl.org/dc/elements/1.1/"
   xmlns:cc="http://creativecommons.org/ns#"
   xmlns:rdf="http://www.w3.org/1999/02/22-rdf-syntax-ns#"
   xmlns:svg="http://www.w3.org/2000/svg"
   xmlns="http://www.w3.org/2000/svg"
   id="svg10490"
   height="30"
   width="203"
   version="1.1">
  <metadata
     id="metadata3809">
    <rdf:RDF>
      <cc:Work
         rdf:about="">
        <dc:format>image/svg+xml</dc:format>
        <dc:type
           rdf:resource="http://purl.org/dc/dcmitype/StillImage" />
        <dc:title></dc:title>
      </cc:Work>
    </rdf:RDF>
  </metadata>
  <defs
     id="defs10492" />
  <path
     style="fill:#000000;stroke-width:0.21278374"
     id="path10468"
     d="M 3.5078335,18.380032 V 9.6251401 H 0.61791151 V 7.2317718 L 3.5078335,6.9062877 V 3.9204241 L 9.7430027,3.1856518 V 6.9082366 H 13.8781 V 9.6368337 H 9.7430027 v 8.3027273 c 0,1.559195 0.5180493,2.358285 2.3463193,2.358285 0.650465,0 1.537884,-0.05847 1.990886,-0.136425 v 2.025007 c -0.998927,0.495044 -3.136169,0.916028 -5.1107936,0.916028 -3.7169415,0 -5.4592578,-1.374042 -5.4592578,-4.722422 z M 45.079501,8.2959236 c 1.565761,0 2.411366,0.2338716 2.411366,4.8763904 l -5.22695,0.257274 c 0.06969,-4.209833 0.82702,-5.1336567 2.815584,-5.1336567 z M 42.315026,15.31816 h 11.239102 c 0,-6.6382843 -2.718015,-8.7548943 -8.370088,-8.7548943 -5.614905,0 -9.299322,3.0326379 -9.299322,8.2403583 0,5.379232 3.3406,8.355351 9.817371,8.355351 3.479986,0 6.290923,-1.305829 7.164405,-2.299817 V 19.31945 c -1.3079,0.33133 -2.652967,0.54572 -5.064334,0.54572 -3.403324,0 -5.157256,-1.48124 -5.487134,-4.560655 z m -27.695861,6.010706 1.997856,-0.771802 V 3.3474207 L 14.514627,2.5288418 V 1.0924316 L 22.28768,0.0399708 h 0.527342 v 8.6106709 h 0.209077 c 1.695854,-1.2863401 3.972482,-2.0893249 6.504648,-2.0893249 3.182632,0 4.762331,1.3292139 4.762331,4.2293222 v 9.764476 l 2.021087,0.773751 v 1.455902 H 26.020883 v -1.455902 l 2.021088,-0.773751 V 11.97368 c 0,-1.605974 -0.836313,-2.2062654 -2.532167,-2.2062654 -0.929236,0 -1.812009,0.1422693 -2.578628,0.4014954 v 10.388154 l 2.021087,0.7757 v 1.455902 H 14.635427 v -1.461749 z" />
  <path
     style="fill:#000000;stroke-width:0.21278374"
     id="path10470"
     d="m 151.02394,7.5942831 v 1.4383617 l 2.10008,0.8185789 V 20.570706 l -2.0025,0.779601 v 1.461746 h 10.27501 v -1.442257 l -2.00249,-0.7796 V 6.5574189 h -0.52735 l -7.84275,1.0505093 z m 21.30273,12.1325079 v -4.274152 l -1.4589,0.116936 c -1.45193,0.116935 -2.64135,0.925772 -2.64135,2.440142 0,1.744354 1.14296,2.319309 2.34632,2.319309 0.69692,0 1.40547,-0.288452 1.7516,-0.604189 z M 167.90351,8.6876714 166.57935,11.91521 h -3.24304 V 7.7638477 c 1.75162,-0.456065 3.88653,-1.200582 7.19228,-1.200582 5.02949,0 8.05183,1.2473563 8.05183,4.7945323 v 9.199266 l 1.99786,0.779597 v 1.192787 c -0.6133,0.276758 -2.0025,0.629527 -3.51949,0.629527 -1.96299,0 -3.7239,-0.526229 -4.01429,-2.241346 h -0.18585 c -0.83631,1.403276 -3.06647,2.260836 -5.41278,2.260836 -3.34526,0 -5.45927,-1.812567 -5.45927,-4.443715 0,-3.235334 2.53217,-3.761563 6.66727,-4.482693 l 3.60078,-0.526229 v -2.063987 c 0,-2.0308541 -0.74339,-3.0404358 -3.13617,-3.0404358 -0.32522,0 -0.906,0.035091 -1.2777,0.066269 z m 13.18585,12.6431436 1.99785,-0.760109 V 9.8512237 L 180.98482,9.0326448 V 7.6098771 l 7.77537,-1.0329689 h 0.52735 v 2.1049164 h 0.20908 c 1.69585,-1.2863375 3.97248,-2.0854271 6.50465,-2.0854271 3.18262,0 4.76232,1.3253187 4.76232,4.2293245 v 9.764474 l 2.02109,0.7796 v 1.461746 h -10.29129 v -1.442257 l 2.02109,-0.764006 V 11.97368 c 0,-1.605974 -0.8363,-2.2062654 -2.53216,-2.2062654 -0.92923,0 -1.81201,0.1422693 -2.57862,0.4014954 v 10.388154 l 1.99785,0.7757 v 1.455902 H 181.13349 V 21.326917 Z M 142.29379,3.3610632 140.19836,2.5619736 v -1.442257 l 7.8381,-1.0524582 h 0.52733 V 20.083458 l 1.99787,0.916028 v 1.364298 l -7.43389,0.721129 h -0.51108 v -1.637157 h -0.20908 c -0.78985,0.838068 -2.39278,1.715117 -4.73909,1.715117 -3.43818,0 -7.55004,-1.832058 -7.55004,-7.893439 0,-6.3732194 4.20479,-8.6730365 9.19943,-8.6730365 1.04539,0 2.27662,0.194893 3.04324,0.6626593 V 3.3610632 Z m 0,16.6444358 V 9.3035538 c -0.48785,-0.3118391 -0.99893,-0.5710545 -2.13725,-0.5710545 -1.96068,0 -3.4614,1.4812357 -3.4614,5.9444397 0,3.909687 1.18477,5.613111 3.66583,5.613111 0.96408,0 1.50536,-0.163715 1.92817,-0.307941 z m -77.76307,8.049355 c -3.424232,0 -4.599715,-1.013477 -4.599715,-2.104916 0,-0.760108 0.241601,-1.286337 0.724804,-1.773588 h 6.627771 c 1.549499,0 2.253396,0.389799 2.253396,1.208378 0.0047,1.637158 -1.080237,2.670126 -5.006256,2.670126 z M 64.58415,8.4089641 c 1.370622,0 2.253396,0.5067398 2.253396,3.6641139 0,3.157375 -0.885097,3.486757 -2.232488,3.486757 -1.347391,0 -2.216226,-0.263116 -2.216226,-3.482859 0,-3.2158447 0.859543,-3.664114 2.225519,-3.664114 z m 4.158328,10.9728539 h -6.736955 c -0.720159,0 -1.324161,-0.467759 -1.324161,-1.01348 0,-0.428777 0.371693,-0.877047 0.836311,-1.169396 1.022159,0.253361 1.858472,0.331328 3.112939,0.331328 4.855254,0 8.177271,-1.851548 8.177271,-5.301272 0,-1.539706 -0.766619,-2.4167555 -1.974625,-3.3132941 V 8.7987681 l 3.112938,0.9160305 0.418157,0.019567 V 6.5555524 h -0.348464 l -4.792531,0.799087 H 68.956205 C 67.762138,6.9843298 66.098807,6.594531 64.5888,6.594531 c -4.855255,0 -8.214442,2.0211098 -8.214442,5.453294 0,2.091274 1.254468,3.648523 3.1292,4.509978 v 0.165672 c -1.082559,0.639272 -3.1594,1.952895 -3.1594,3.63488 0,1.22787 0.966405,2.442094 2.987493,2.806557 v 0.16956 c -2.125627,0.370309 -4.506792,0.955009 -4.506792,3.001455 0,2.104916 3.635633,3.664114 9.561832,3.664114 7.36419,0 10.551467,-2.377777 10.551467,-6.13934 0,-3.098904 -2.044318,-4.541164 -6.202646,-4.541164 z M 115.9244,7.6098771 v 1.442257 l 2.11401,0.8185789 v 10.719483 l -1.99785,0.7796 v 1.461746 h 10.82327 V 21.389285 L 124.2852,20.609687 V 11.77878 c 1.06861,-0.428778 2.47409,-0.573004 4.15833,-0.573004 0.55289,0 1.208,0.05847 1.58667,0.14227 V 6.7308711 c -0.20908,-0.058468 -0.62026,-0.085758 -0.92924,-0.085758 -2.06754,0 -3.75644,1.1167755 -4.85989,3.2353344 h -0.18585 v -3.336684 h -0.53432 l -7.5965,1.0485604 z m -8.64188,12.1422499 v -4.287795 l -1.44032,0.116936 c -1.44031,0.116936 -2.62509,0.93552 -2.62509,2.455737 0,1.754098 1.13832,2.319306 2.34632,2.319306 0.69693,0 1.40779,-0.29235 1.75161,-0.604189 z M 102.84541,8.7013139 101.52126,11.936648 H 98.268936 V 7.7638477 c 1.765544,-0.456065 3.902784,-1.200582 7.201574,-1.200582 5.04109,0 8.06111,1.2473563 8.06111,4.7945323 v 9.199266 l 1.99785,0.779597 v 1.192787 c -0.60399,0.276758 -1.99785,0.629527 -3.50785,0.629527 -1.9514,0 -3.71695,-0.526229 -3.99572,-2.241346 h -0.18584 c -0.83632,1.403276 -3.06648,2.260836 -5.39886,2.260836 -3.338284,0 -5.436028,-1.812567 -5.436028,-4.443715 0,-3.235334 2.548432,-3.761563 6.681198,-4.482693 l 3.61938,-0.526229 v -2.063987 c 0,-2.0308541 -0.72945,-3.0404358 -3.13617,-3.0404358 -0.31362,0 -0.90601,0.035091 -1.28234,0.066269 z M 76.966215,9.8512237 74.875435,9.0326448 V 7.6098771 l 7.852038,-1.0329689 h 0.534311 V 17.70373 c 0,1.802822 1.052359,2.124408 2.636705,2.124408 1.161544,0 1.626162,-0.175403 2.253396,-0.376156 V 9.8492748 L 86.037874,9.0306959 V 7.5942831 l 7.828802,-1.0485603 h 0.511091 V 20.071762 l 2.090774,0.916031 v 1.372093 l -7.619729,0.701638 h -0.548249 l -0.007,-2.104917 h -0.209078 c -1.203361,1.247359 -3.189601,2.163387 -5.738029,2.163387 -3.786635,0 -5.405827,-2.260836 -5.405827,-5.008922 V 9.8492748 Z M 156.13474,0.0263283 c 1.85846,0 3.35687,1.2610014 3.35687,2.8182504 0,1.5553002 -1.50304,2.8182505 -3.35919,2.8182505 -1.85847,0 -3.36849,-1.2473589 -3.36849,-2.8065569 0,-1.5591979 1.51002,-2.80655427 3.36849,-2.80655427 z m 45.64869,21.8989307 4.00501,0.0077" />
</svg>
