<?xml version="1.0" encoding="UTF-8" standalone="no"?>
<svg
   xmlns:dc="http://purl.org/dc/elements/1.1/"
   xmlns:cc="http://creativecommons.org/ns#"
   xmlns:rdf="http://www.w3.org/1999/02/22-rdf-syntax-ns#"
   xmlns:svg="http://www.w3.org/2000/svg"
   xmlns="http://www.w3.org/2000/svg"
   id="svg10490"
   height="39"
   width="207"
   version="1.1">
  <metadata
     id="metadata5071">
    <rdf:RDF>
      <cc:Work
         rdf:about="">
        <dc:format>image/svg+xml</dc:format>
        <dc:type
           rdf:resource="http://purl.org/dc/dcmitype/StillImage" />
        <dc:title></dc:title>
      </cc:Work>
    </rdf:RDF>
  </metadata>
  <defs
     id="defs10492" />
  <path
     style="fill:#808080;stroke-width:0.24125095"
     id="path10468"
     d="m 3.4792228,23.806393 v -11.228 H 0.58257222 V 9.5089462 L 3.4792228,9.0915119 V 5.2621942 L 9.7289051,4.3198688 V 9.0940089 H 13.873629 V 12.593394 H 9.7289051 v 10.648087 c 0,1.999643 0.5192539,3.02446 2.3517819,3.02446 0.651978,0 1.541464,-0.07493 1.99552,-0.174957 v 2.597039 c -1.001252,0.634887 -3.143469,1.174791 -5.1226904,1.174791 -3.7255939,0 -5.4719665,-1.762179 -5.4719665,-6.056417 z M 45.14766,10.873702 c 1.569406,0 2.416979,0.299945 2.416979,6.253873 l -5.239118,0.329947 c 0.06987,-5.399038 0.828945,-6.58382 2.822139,-6.58382 z m -2.77091,9.005892 h 11.265263 c 0,-8.513485 -2.724339,-11.2279967 -8.389572,-11.2279967 -5.627975,0 -9.320969,3.8893027 -9.320969,10.5681057 0,6.898763 3.348377,10.715591 9.840225,10.715591 3.488088,0 6.305566,-1.674706 7.181082,-2.949475 v -1.97465 c -1.310942,0.424928 -2.659143,0.699881 -5.076122,0.699881 -3.411247,0 -5.169261,-1.899663 -5.499907,-5.848954 z m -27.760331,7.708614 2.002507,-0.989821 V 4.5273291 l -2.10729,-1.0498082 v -1.842178 l 7.791148,-1.34975517 h 0.528569 V 11.328616 h 0.209563 c 1.699803,-1.6497025 3.98173,-2.6795157 6.51979,-2.6795157 3.190041,0 4.773418,1.7046907 4.773418,5.4240267 v 12.522761 l 2.025791,0.99232 v 1.867169 H 26.044677 v -1.867169 l 2.025792,-0.99232 V 15.590354 c 0,-2.059631 -0.838258,-2.829489 -2.538061,-2.829489 -0.931399,0 -1.816226,0.182454 -2.584631,0.5149 v 13.322622 l 2.025791,0.994817 v 1.867167 H 14.632719 v -1.874658 z" />
  <path
     style="fill:#808080;stroke-width:0.24125095"
     id="path10470"
     d="m 151.33873,9.9738523 v 1.8446727 l 2.10496,1.049811 v 13.747549 l -2.00717,0.999828 v 1.874658 h 10.29894 v -1.849669 l -2.00717,-0.999828 V 8.6440898 h -0.52856 l -7.861,1.3472581 z M 172.69104,25.533575 V 20.05206 l -1.46229,0.149963 c -1.45532,0.149963 -2.6475,1.187279 -2.6475,3.129435 0,2.237104 1.1456,2.974466 2.35178,2.974466 0.69855,0 1.40873,-0.369922 1.75567,-0.774855 z m -4.43347,-14.157476 -1.32723,4.139269 h -3.25059 v -5.324051 c 1.7557,-0.5848926 3.89559,-1.5397197 7.20904,-1.5397197 5.04119,0 8.07055,1.5997077 8.07055,6.1489007 v 11.797889 l 2.0025,0.999828 v 1.529727 c -0.6147,0.354938 -2.00715,0.807352 -3.52767,0.807352 -1.96758,0 -3.73258,-0.674878 -4.02363,-2.874486 h -0.18628 c -0.83826,1.799672 -3.07362,2.89948 -5.42539,2.89948 -3.35304,0 -5.47198,-2.324583 -5.47198,-5.698982 0,-4.149261 2.53807,-4.824138 6.6828,-5.74898 l 3.60917,-0.674877 V 15.19043 c 0,-2.604543 -0.74511,-3.899307 -3.14347,-3.899307 -0.32599,0 -0.90812,0.04504 -1.28069,0.08503 z m 13.21655,16.214608 2.00252,-0.974822 V 12.868336 l -2.1073,-1.049811 V 9.9938473 l 7.79347,-1.3247519 h 0.52856 v 2.6995106 h 0.20957 c 1.69983,-1.6497 3.98173,-2.6745192 6.5198,-2.6745192 3.19002,0 4.77341,1.6996972 4.77341,5.4240262 v 12.522761 l 2.0258,0.999828 v 1.87466 H 192.9047 v -1.849669 l 2.02581,-0.979818 V 15.590354 c 0,-2.059631 -0.83827,-2.829489 -2.53807,-2.829489 -0.9314,0 -1.81622,0.182454 -2.58465,0.5149 v 13.322622 l 2.00252,0.994817 v 1.867167 H 181.51836 V 27.585713 Z M 142.58824,4.5448272 140.48794,3.520008 V 1.670339 l 7.85634,-1.34975522 h 0.52857 V 25.991002 l 2.00251,1.174789 v 1.74968 l -7.45119,0.924842 h -0.51227 v -2.099634 h -0.20957 c -0.79168,1.074814 -2.39835,2.199611 -4.75013,2.199611 -3.44617,0 -7.56761,-2.349583 -7.56761,-10.123195 0,-8.173534 4.21458,-11.1230082 9.22085,-11.1230082 1.04782,0 2.28192,0.2499499 3.05032,0.8498413 V 4.5448272 Z m 0,21.3461828 V 12.165969 c -0.48899,-0.399936 -1.00126,-0.732368 -2.14222,-0.732368 -1.96525,0 -3.46946,1.899652 -3.46946,7.62364 0,5.0141 1.18754,7.198712 3.67437,7.198712 0.96632,0 1.50886,-0.209972 1.93265,-0.394928 z M 64.644159,36.214174 c -3.432205,0 -4.610423,-1.299774 -4.610423,-2.699524 0,-0.974827 0.242163,-1.649705 0.72649,-2.274585 h 6.643199 c 1.553108,0 2.258643,0.499899 2.258643,1.54971 0.0048,2.099633 -1.082752,3.424399 -5.017909,3.424399 z m 0.05355,-25.195508 c 1.373814,0 2.258641,0.649887 2.258641,4.699166 0,4.049282 -0.887158,4.471699 -2.237685,4.471699 -1.350526,0 -2.221384,-0.33744 -2.221384,-4.466702 0,-4.124266 0.861543,-4.699154 2.230697,-4.699154 z M 68.86572,25.09115 h -6.752639 c -0.721833,0 -1.327244,-0.599889 -1.327244,-1.299758 0,-0.549911 0.37256,-1.124798 0.83826,-1.499731 1.024537,0.324936 1.862797,0.424914 3.120184,0.424914 4.866556,0 8.196306,-2.374575 8.196306,-6.798773 0,-1.974653 -0.768402,-3.099449 -1.97922,-4.249249 V 11.51859 l 3.120185,1.174791 0.41913,0.02497 V 8.6415809 H 74.151407 L 69.347719,9.6664001 H 69.079937 C 67.88309,9.1914895 66.215887,8.6915756 64.702365,8.6915756 c -4.866558,0 -8.233564,2.5920304 -8.233564,6.9937484 0,2.682026 1.257388,4.679159 3.136483,5.783972 v 0.212448 c -1.085077,0.819856 -3.166754,2.504552 -3.166754,4.661661 0,1.574728 0.968655,3.131946 2.994448,3.599363 v 0.21747 c -2.130574,0.474911 -4.517283,1.224774 -4.517283,3.849313 0,2.699512 3.644097,4.699156 9.58409,4.699156 7.381331,0 10.576029,-3.049454 10.576029,-7.873591 0,-3.974294 -2.049078,-5.823963 -6.217085,-5.823963 z M 116.15748,9.9938473 v 1.8496687 l 2.11894,1.049823 v 13.747535 l -2.00251,0.999828 v 1.87466 h 10.84846 V 27.665693 L 124.53774,26.66588 V 15.340402 c 1.07111,-0.549908 2.47985,-0.734877 4.16801,-0.734877 0.55418,0 1.21082,0.07493 1.59036,0.182479 V 8.8665535 c -0.20956,-0.074934 -0.62171,-0.1100199 -0.9314,-0.1100199 -2.07236,0 -3.76517,1.4322484 -4.87121,4.1492574 h -0.18628 V 8.6265564 h -0.53556 l -7.61418,1.3447587 z m -8.662,15.5722267 v -5.499015 l -1.44367,0.149963 c -1.44367,0.149963 -2.6312,1.199785 -2.6312,3.149432 0,2.249606 1.14096,2.974466 2.35178,2.974466 0.69855,0 1.41107,-0.374931 1.75569,-0.774855 z m -4.44743,-14.172477 -1.32724,4.14926 h -3.259897 v -5.35154 c 1.769657,-0.5848926 3.911867,-1.5397197 7.218337,-1.5397197 5.05284,0 8.07988,1.5997077 8.07988,6.1489007 v 11.797889 l 2.00251,0.999828 v 1.529727 c -0.60541,0.354938 -2.00251,0.807352 -3.51603,0.807352 -1.95594,0 -3.72559,-0.674878 -4.00501,-2.874486 h -0.18628 c -0.83826,1.799672 -3.07362,2.89948 -5.41143,2.89948 -3.346046,0 -5.448679,-2.324583 -5.448679,-5.698982 0,-4.149261 2.554359,-4.824138 6.696749,-5.74898 l 3.6278,-0.674877 V 15.19043 c 0,-2.604543 -0.73114,-3.899307 -3.14347,-3.899307 -0.31434,0 -0.90811,0.04504 -1.28533,0.08503 z M 77.108603,12.868336 75.012956,11.818525 V 9.9938473 l 7.870319,-1.3247519 h 0.535552 V 22.939038 c 0,2.312091 1.054811,2.724515 2.642844,2.724515 1.164247,0 1.629948,-0.224968 2.258641,-0.482414 v -12.3153 L 86.201381,11.816028 V 9.9738523 L 94.048413,8.6290911 H 94.56068 V 25.976001 l 2.095648,1.174792 v 1.759684 l -7.637468,0.899836 h -0.549525 l -0.0069,-2.69951 H 88.25287 c -1.20616,1.599705 -3.197027,2.774496 -5.751385,2.774496 -3.79545,0 -5.418411,-2.89948 -5.418411,-6.423854 V 12.865839 Z M 156.46143,0.26808971 c 1.86279,0 3.36467,1.61721719 3.36467,3.61434969 0,1.9946473 -1.50654,3.6143615 -3.36701,3.6143615 -1.86278,0 -3.37631,-1.5997192 -3.37631,-3.5993628 0,-1.9996413 1.51353,-3.59934875 3.37631,-3.59934875 z m 45.75493,28.08498329 4.01432,0.01037" />
</svg>
